<svg width="15" height="13" viewBox="0 0 15 13" fill="none" xmlns="http://www.w3.org/2000/svg">
<path d="M5.79573 11.7217C5.72807 11.6558 5.43873 11.4069 5.20073 11.1751C3.7039 9.81575 1.2539 6.26972 0.506068 4.41373C0.385901 4.13187 0.131568 3.41926 0.115234 3.03851C0.115234 2.67368 0.199234 2.3259 0.369568 1.99402C0.607568 1.58032 0.982068 1.24845 1.42423 1.0666C1.73107 0.949536 2.64923 0.767689 2.66557 0.767689C3.67007 0.585841 5.30223 0.485825 7.1059 0.485825C8.8244 0.485825 10.3901 0.585841 11.4097 0.734729C11.4261 0.751777 12.5671 0.933625 12.9579 1.13252C13.6719 1.49735 14.1152 2.20997 14.1152 2.97259V3.03851C14.0977 3.53518 13.6544 4.57967 13.6381 4.57967C12.8891 6.33564 10.5592 9.79984 9.01107 11.1921C9.01107 11.1921 8.61323 11.5842 8.36473 11.7547C8.00773 12.0207 7.56557 12.1525 7.1234 12.1525C6.6299 12.1525 6.17023 12.0036 5.79573 11.7217" fill="#4E4E4E"/>
</svg>
