<svg width="40" height="39" viewBox="0 0 40 39" fill="none" xmlns="http://www.w3.org/2000/svg">
<g clip-path="url(#clip0)">
<path d="M19.7538 0C30.524 0 39.2539 8.73112 39.2539 19.5001C39.2539 30.2702 30.524 39 19.7538 39C8.98369 39 0.253906 30.2701 0.253906 19.5001C0.253906 8.73112 8.98382 0 19.7538 0Z" fill="#3B5998"/>
<path d="M22.128 13.4247H24.6411V9.7124H21.6869V9.72579C18.1074 9.85257 17.3737 11.8647 17.3091 13.978H17.3017V15.8318H14.8643V19.4673H17.3017V29.2123H20.9751V19.4673H23.9841L24.5654 15.8318H20.9763V14.7118C20.9763 13.9976 21.4515 13.4247 22.128 13.4247Z" fill="white"/>
</g>
<defs>
<clipPath id="clip0">
<rect width="39" height="39" fill="white" transform="translate(0.253906)"/>
</clipPath>
</defs>
</svg>
