<svg width="40" height="39" viewBox="0 0 40 39" fill="none" xmlns="http://www.w3.org/2000/svg">
<g clip-path="url(#clip0)">
<path d="M2.69094 2.65349C-0.373813 5.83686 0.253437 9.21849 0.253437 19.4917C0.253437 28.023 -1.23506 36.5754 6.55519 38.5887C8.98781 39.2144 30.5418 39.2144 32.9712 38.5855C36.2147 37.7486 38.8537 35.1177 39.2144 30.5304C39.2648 29.8901 39.2648 9.10474 39.2128 8.45149C38.8293 3.56511 35.8214 0.748987 31.8581 0.178612C30.9497 0.0469868 30.7677 0.00798676 26.1072 -0.000138234C9.57606 0.00798676 5.95231 -0.728138 2.69094 2.65349Z" fill="url(#paint0_linear)"/>
<path d="M19.7504 5.10081C13.85 5.10081 8.24698 4.57594 6.10685 10.0684C5.22285 12.3369 5.35123 15.2831 5.35123 19.5016C5.35123 23.2033 5.2326 26.6824 6.10685 28.9331C8.2421 34.4288 13.8906 33.9023 19.7471 33.9023C25.3972 33.9023 31.2229 34.4906 33.389 28.9331C34.2746 26.6418 34.1446 23.7396 34.1446 19.5016C34.1446 13.8758 34.455 10.2439 31.7266 7.51719C28.9641 4.75469 25.2282 5.10081 19.7439 5.10081H19.7504ZM18.4601 7.69594C30.7679 7.67644 32.3344 6.30819 31.4699 25.3158C31.1627 32.0384 26.044 31.3007 19.752 31.3007C8.27948 31.3007 7.9496 30.9724 7.9496 19.4951C7.9496 7.88444 8.8596 7.70244 18.4601 7.69269V7.69594ZM27.4366 10.0863C26.4827 10.0863 25.7092 10.8598 25.7092 11.8137C25.7092 12.7676 26.4827 13.5411 27.4366 13.5411C28.3905 13.5411 29.164 12.7676 29.164 11.8137C29.164 10.8598 28.3905 10.0863 27.4366 10.0863ZM19.7504 12.1062C15.6667 12.1062 12.3566 15.4179 12.3566 19.5016C12.3566 23.5852 15.6667 26.8953 19.7504 26.8953C23.834 26.8953 27.1425 23.5852 27.1425 19.5016C27.1425 15.4179 23.834 12.1062 19.7504 12.1062ZM19.7504 14.7013C26.096 14.7013 26.1041 24.3018 19.7504 24.3018C13.4064 24.3018 13.3966 14.7013 19.7504 14.7013Z" fill="white"/>
</g>
<defs>
<linearGradient id="paint0_linear" x1="2.76572" y1="36.5089" x2="39.0121" y2="5.13807" gradientUnits="userSpaceOnUse">
<stop stop-color="#FFDD55"/>
<stop offset="0.5" stop-color="#FF543E"/>
<stop offset="1" stop-color="#C837AB"/>
</linearGradient>
<clipPath id="clip0">
<rect width="39" height="39" fill="white" transform="translate(0.253906)"/>
</clipPath>
</defs>
</svg>
