<svg width="70" height="70" viewBox="0 0 70 70" fill="none" xmlns="http://www.w3.org/2000/svg">
<circle cx="35.0405" cy="35.0894" r="34.8813" fill="#05AAD1"/>
<path d="M30.4398 28.2904C30.2626 28.6526 30.2945 29.0775 30.5249 29.3996L34.1132 34.415L24.2103 41.5002C23.7102 41.8579 23.588 42.5447 23.9375 43.0331C24.2869 43.5216 24.9764 43.6276 25.4764 43.2699L35.3794 36.1847L38.9677 41.2001C39.199 41.5234 39.5908 41.6907 39.9901 41.6388C40.391 41.5891 40.7361 41.3262 40.8927 40.9555L46.2566 28.1974C46.4034 27.8462 46.3611 27.4501 46.1433 27.1457C45.9256 26.8413 45.5644 26.6734 45.1846 26.699L31.3779 27.6567C31.1664 27.6724 30.9656 27.7465 30.7977 27.8666C30.6479 27.9738 30.524 28.1196 30.4398 28.2904" fill="white"/>
</svg>
