<svg width="40" height="39" viewBox="0 0 40 39" fill="none" xmlns="http://www.w3.org/2000/svg">
<g clip-path="url(#clip0)">
<path d="M19.7538 0C30.524 0 39.2539 8.73112 39.2539 19.5001C39.2539 30.269 30.524 39 19.7538 39C8.98369 39 0.253906 30.2689 0.253906 19.5001C0.253906 8.73125 8.98382 0 19.7538 0Z" fill="#0E76A8"/>
<path d="M11.2422 26.7929H14.8936V14.6225H11.2422V26.7929ZM25.4675 14.2009C23.6954 14.2009 22.1098 14.8481 20.985 16.2765V14.5824H17.3202V26.7931H20.985V20.1899C20.985 18.7944 22.2635 17.433 23.8649 17.433C25.4663 17.433 25.8612 18.7944 25.8612 20.1557V26.7919H29.5126V19.884C29.5125 15.0857 27.2408 14.2009 25.4675 14.2009ZM13.0508 13.4062C14.06 13.4062 14.879 12.5872 14.879 11.578C14.879 10.5689 14.06 9.75 13.0508 9.75C12.0417 9.75 11.2227 10.569 11.2227 11.5782C11.2227 12.5873 12.0417 13.4062 13.0508 13.4062Z" fill="white"/>
</g>
<defs>
<clipPath id="clip0">
<rect width="39" height="39" fill="white" transform="translate(0.253906)"/>
</clipPath>
</defs>
</svg>
