<svg width="24" height="16" viewBox="0 0 24 16" fill="none" xmlns="http://www.w3.org/2000/svg">
<path d="M12.1896 0.932271C11.8776 1.10059 11.6831 1.42065 11.6831 1.76876V7.18936H0.980036C0.439595 7.18936 0.000976562 7.6178 0.000976562 8.14571C0.000976562 8.67361 0.439595 9.10206 0.980036 9.10206H11.6831V14.5227C11.6831 14.872 11.8776 15.1921 12.1896 15.3591C12.5016 15.5287 12.8828 15.5173 13.1843 15.3324L23.5441 8.95542C23.8287 8.77945 24.001 8.47469 24.001 8.14571C24.001 7.81672 23.8287 7.51197 23.5441 7.336L13.1843 0.959049C13.0251 0.862139 12.8436 0.812408 12.6622 0.812408C12.5003 0.812408 12.3371 0.853213 12.1896 0.932271" fill="#05AAD1"/>
</svg>
