<svg width="40" height="39" viewBox="0 0 40 39" fill="none" xmlns="http://www.w3.org/2000/svg">
<g clip-path="url(#clip0)">
<path d="M19.7538 0C30.524 0 39.2539 8.73112 39.2539 19.5001C39.2539 30.2702 30.524 39 19.7538 39C8.98369 39 0.253906 30.2701 0.253906 19.5001C0.253906 8.73112 8.98382 0 19.7538 0Z" fill="#26A6D1"/>
<path d="M31.9445 13.1374C31.0927 13.5054 30.1761 13.7528 29.2146 13.865C30.197 13.2934 30.9501 12.3903 31.3048 11.3118C30.3859 11.8419 29.3694 12.2259 28.2859 12.4318C27.4193 11.536 26.1848 10.9766 24.8174 10.9766C22.1946 10.9766 20.0667 13.04 20.0667 15.587C20.0667 15.949 20.1082 16.3013 20.1898 16.6389C16.241 16.4464 12.7383 14.6096 10.3959 11.82C9.98642 12.5013 9.75241 13.2922 9.75241 14.138C9.75241 15.737 10.5909 17.1507 11.8657 17.9759C11.0858 17.9515 10.3544 17.7455 9.71225 17.3982V17.4567C9.71225 19.6919 11.3502 21.5554 13.5244 21.9795C13.1259 22.0843 12.7066 22.1416 12.2727 22.1416C11.9668 22.1416 11.6695 22.1137 11.3794 22.0588C11.9838 23.8918 13.7389 25.225 15.8193 25.2617C14.1923 26.4999 12.1435 27.2361 9.91694 27.2361C9.53299 27.2361 9.1552 27.2141 8.78223 27.1716C10.887 28.4804 13.3831 29.2446 16.0679 29.2446C24.8088 29.2446 29.5888 22.2149 29.5888 16.1211L29.5754 15.5239C30.5015 14.8754 31.3072 14.0637 31.9445 13.1374Z" fill="white"/>
</g>
<defs>
<clipPath id="clip0">
<rect width="39" height="39" fill="white" transform="translate(0.253906)"/>
</clipPath>
</defs>
</svg>
